<svg version="1" xmlns="http://www.w3.org/2000/svg" width="666.667" height="666.667" viewBox="0 0 500.000000 500.000000"><path d="M133 33.2v17.2L148.5 66 164 81.6V101h16.2l-.4-13-.3-13-15.7-15.8L148 43.5V16h-15v17.2zM195 58.5V101h16V16h-16v42.5zM242 55.5v39.4l-2.7 1.5c-14.7 7.7-16.6 29.3-3.5 39.3 11.6 8.9 28.1 5.1 34.6-7.8 3-6.2 3.5-13.9 1-19.7-1.7-4.3-6.7-9.7-10.6-11.8l-2.8-1.5V16h-16v39.5zm14.1 57.4c3.9 4.9.2 12.1-6.2 12.1-5.7 0-9.5-6.9-6.5-11.6 3.2-4.8 9.1-5.1 12.7-.5zM289 58.5V101h16V16h-16v42.5zM352 29.7v13.7l-16 16.1-16 16.1V101h16V81.6L351.5 66 367 50.4V16h-15v13.7zM119.9 119.9c-2.9 2.9-2.9 3-2.9 15.5V148h16v-15h15v-16h-12.6c-12.5 0-12.6 0-15.5 2.9zM164 125v8h16v-16h-16v8zM195 125v8h16v-16h-16v8zM289 125v8h16v-16h-16v8zM320 125v8h16v-16h-16v8zM352 125v8h15v15h16v-12.6c0-12.5 0-12.6-2.9-15.5-2.9-2.9-3-2.9-15.5-2.9H352v8zM16 140.5v7.5H43.3l16.2 16 16.3 16.1 12.8-.3 12.9-.3.3-7.8.3-7.7H81.6L66 148.5 50.4 133H16v7.5zM434 148.5L418.4 164h-20.5l.3 7.7.3 7.8 12.9.3 12.8.3 16.3-16.1 16.2-16H484v-15h-34.4L434 148.5zM161.4 157c-5.7 2.3-5.4-2.2-5.4 93.3v87.9l2.9 2.9 3 2.9 88.6-.2 88.7-.3 2.4-2.8 2.4-2.8V161.8l-2.9-2.9-2.9-2.9-87.4.1c-48 0-88.3.4-89.4.9zm130 14.2c8.9 4.6 13.6 12.1 13.6 21.5-.1 17.8-18.2 28.8-34 20.8-19.2-9.7-16-36.8 5-43.6 3.1-1 12.5-.2 15.4 1.3zM220 220.5c2.2 4.4 4.7 10.7 5.5 14 1.8 6.9 2 22.1.4 29.7-1.5 7.3-9 22.4-13.8 27.8l-4 4.5-3.1-3.1-3.2-3.2 4.2-5.3c16.1-20.2 16.1-48.6 0-69.7l-4.1-5.3 3.3-3.1 3.2-3 3.8 4.4c2.1 2.3 5.6 7.9 7.8 12.3zm-16.3 8c7.9 15.2 6.9 34.1-2.5 47.7-5 7.3-5.8 7.7-9.4 4l-3.1-3.1 2.5-3.3c10.8-14.1 11-33.2.6-46.1l-3-3.9 3.3-3.5 3.4-3.4 2.8 3.3c1.6 1.8 4 5.5 5.4 8.3zm101.3-3.7c2 1.1 4.3 3.4 5.4 5.6 1.8 3.8 1.8 4.3-1.3 47.5-1.7 24-3.4 45.7-3.7 48.3l-.6 4.8H285v-20.8c0-14.8-.3-21.1-1.2-22-1.6-1.6-2.3-1.5-4.2.4-1.4 1.3-1.6 4.7-1.6 22V331h-20v-3.8c-.1-2-1.6-23.5-3.4-47.7-2-26.7-3-45.1-2.5-46.9.5-1.6 1.6-3.8 2.6-4.9 3.7-4.1 6.9-4.6 27.3-4.7 17 0 20 .2 23 1.8zm-119.1 9.8c3.8 5.8 5.5 13.2 4.6 19.2-.8 5.1-4.4 13.1-7 15.2-1.4 1.2-2 .9-4.6-1.7l-3-3 2.5-4.8c3.4-6.4 3.4-12.6.1-19l-2.6-4.8 2.7-2.8c1.5-1.6 3.1-2.9 3.6-2.9s2.1 2.1 3.7 4.6zM117 172v8h16v-16h-16v8zM367 172v8h16v-16h-16v8zM16 203v8h86.1l-.3-7.8-.3-7.7-42.7-.3L16 195v8zM117 203v8h16v-16h-16v8zM367 203v8h16v-16h-16v8zM398.7 195.7c-.4.3-.7 3.9-.7 8v7.3h86v-16h-42.3c-23.3 0-42.7.3-43 .7zM108 228.6c-4.1 1.8-9.6 6.8-11.6 10.6l-1.5 2.8H16v16h78.8l2.2 3.4c5.1 8.3 12.4 12.1 21.9 11.4 7.2-.5 12.7-3.3 16.8-8.6 8.5-11.2 5.3-27.1-7-34.2-4.2-2.4-6.3-3-11.2-3-3.3.1-7.6.8-9.5 1.6zm15.2 16.7c5.1 6.5-2.9 15.7-9.8 11.3-5-3.3-5.1-9.5-.2-13.1 2.9-2.1 7.7-1.2 10 1.8zM371.9 229.3c-17.7 9.4-15.8 36.1 3 42.5 4.7 1.7 12.5 1.5 16.9-.4 4.3-1.7 9.7-6.7 11.8-10.7l1.5-2.7H484v-16h-78.8l-2-3.3c-5-7.9-11.7-11.7-21-11.7-4.2 0-7.1.7-10.3 2.3zm15.9 15c3.9 3.2 3.3 9.3-1.2 12.3-6.8 4.4-15-4.9-9.8-11.2.9-1.2 2.4-2.4 3.2-2.7 1.9-.7 6.1.1 7.8 1.6zM16 297v8l42.8-.2 42.7-.3.3-7.8.3-7.7H16v8zM117 297v8h16v-16h-16v8zM367 297v8h16v-16h-16v8zM398.2 296.7l.3 7.8 42.8.3 42.7.2v-16h-86.1l.3 7.7zM76 320.7c-.8.3-8.5 7.5-17.1 15.9L43.4 352H16v15h34.4L66 351.5 81.6 336h20.5l-.3-7.8-.3-7.7-12-.2c-6.6-.1-12.7.1-13.5.4zM117 328v8h16v-16h-16v8zM367 328v8h16v-16h-16v8zM398.7 320.6c-.4.4-.7 4-.7 8.1v7.3h20.4l15.6 15.5 15.6 15.5H484v-15h-27.4l-15.8-15.8-15.9-15.7-12.7-.3c-7-.2-13.1 0-13.5.4zM117 364.6c0 12.5 0 12.6 2.9 15.5 2.9 2.9 3 2.9 15.5 2.9H148v-16h-15v-15h-16v12.6zM367 359.5v7.5h-15v16h12.6c12.5 0 12.6 0 15.5-2.9 2.9-2.9 2.9-3 2.9-15.5V352h-16v7.5zM241.1 361.1c-8.2 3.3-14.1 12.1-14.1 21.2 0 3.2.7 7.4 1.6 9.5 1.7 4.3 6.7 9.7 10.7 11.8l2.7 1.5V484h16v-78.9l2.8-1.5c16.9-8.9 16-34.9-1.5-42.3-3.7-1.5-14.6-1.6-18.2-.2zm13.4 15.5c5.1 3.3 3.8 11.2-2.3 13.5-5 1.9-11.1-3.4-9.8-8.6 1.5-5.8 7.2-8.2 12.1-4.9zM164 375v8h16v-16h-16v8zM195 375v8h16v-16h-16v8zM289 375v8h16v-16h-16v8zM320 375v8h16v-16h-16v8zM164 408.7v9.7L148.5 434 133 449.6V484h15v-27.4l16-16.1 16-16.1V399h-16v9.7zM195 441.5V484h16v-85h-16v42.5zM289 441.5V484h16v-85h-16v42.5zM320 411.7v12.7l16 16.1 16 16.1V484h15v-34.4L351.5 434 336 418.4V399h-16v12.7z"/></svg>